<svg width="201" height="226" viewBox="0 0 201 226" fill="none" xmlns="http://www.w3.org/2000/svg">
<path fill-rule="evenodd" clip-rule="evenodd" d="M200.046 100.519C200.046 45.2902 155.274 0.518677 100.046 0.518677C44.8174 0.518677 0.0458984 45.2902 0.0458984 100.519C0.0458984 155.747 44.8174 200.519 100.046 200.519C155.274 200.519 200.046 155.747 200.046 100.519ZM133.046 100.519C133.046 82.2933 118.271 67.5187 100.046 67.5187C81.8205 67.5187 67.0459 82.2933 67.0459 100.519C67.0459 118.744 81.8205 133.519 100.046 133.519C118.271 133.519 133.046 118.744 133.046 100.519Z" fill="#012F34"/>
<rect x="43.0459" y="0.518677" width="43" height="43" transform="rotate(90 43.0459 0.518677)" fill="#79C8C7"/>
<path fill-rule="evenodd" clip-rule="evenodd" d="M200.046 125.005C200.046 69.7767 155.274 25.0051 100.046 25.0051C44.8174 25.0051 0.0458984 69.7767 0.0458984 125.005C0.0458984 180.234 44.8174 225.005 100.046 225.005C155.274 225.005 200.046 180.234 200.046 125.005ZM133.046 125.005C133.046 106.78 118.271 92.0051 100.046 92.0051C81.8205 92.0051 67.0459 106.78 67.0459 125.005C67.0459 143.231 81.8205 158.005 100.046 158.005C118.271 158.005 133.046 143.231 133.046 125.005Z" fill="#F67E7E"/>
</svg>
