<svg width="200" height="201" viewBox="0 0 200 201" fill="none" xmlns="http://www.w3.org/2000/svg">
<rect width="100" height="100" transform="matrix(1 0 0 -1 99.9966 100.807)" fill="#2C6269"/>
<path fill-rule="evenodd" clip-rule="evenodd" d="M99.9966 200.807C44.7681 200.807 -0.00341797 156.036 -0.00341797 100.807C-0.00341797 45.579 44.7681 0.807495 99.9966 0.807495C155.225 0.807495 199.997 45.579 199.997 100.807C199.997 156.036 155.225 200.807 99.9966 200.807ZM99.9966 133.807C81.7712 133.807 66.9966 119.033 66.9966 100.807C66.9966 82.5821 81.7712 67.8075 99.9966 67.8075C118.222 67.8075 132.997 82.5821 132.997 100.807C132.997 119.033 118.222 133.807 99.9966 133.807Z" fill="#012F34"/>
<path fill-rule="evenodd" clip-rule="evenodd" d="M99.9966 56.8075H199.997V60.8075H99.9966V56.8075ZM99.9966 64.8075H199.997V68.8075H99.9966V64.8075ZM199.997 72.8075H99.9966V76.8075H199.997V72.8075ZM99.9966 80.8075H199.997V84.8075H99.9966V80.8075ZM199.997 88.8075H99.9966V92.8075H199.997V88.8075ZM99.9966 96.8075H199.997V100.807H99.9966V96.8075Z" fill="#79C8C7"/>
<path fill-rule="evenodd" clip-rule="evenodd" d="M199.997 100.807H195.997V104.807H199.997V100.807ZM188.997 100.807H192.997V104.807H188.997V100.807ZM188.997 108.807H192.997V112.807H188.997V108.807ZM192.997 116.807H188.997V120.807H192.997V116.807ZM188.997 124.807H192.997V128.807H188.997V124.807ZM192.997 132.807H188.997V136.807H192.997V132.807ZM188.997 140.807H192.997V144.807H188.997V140.807ZM185.997 100.807H181.997V104.807H185.997V100.807ZM185.997 108.807H181.997V112.807H185.997V108.807ZM181.997 116.807H185.997V120.807H181.997V116.807ZM185.997 124.807H181.997V128.807H185.997V124.807ZM181.997 132.807H185.997V136.807H181.997V132.807ZM185.997 140.807H181.997V144.807H185.997V140.807ZM199.997 108.807H195.997V112.807H199.997V108.807ZM178.997 100.807H174.997V104.807H178.997V100.807ZM178.997 108.807H174.997V112.807H178.997V108.807ZM174.997 116.807H178.997V120.807H174.997V116.807ZM178.997 124.807H174.997V128.807H178.997V124.807ZM174.997 132.807H178.997V136.807H174.997V132.807ZM178.997 140.807H174.997V144.807H178.997V140.807ZM199.997 116.807H195.997V120.807H199.997V116.807ZM171.997 100.807H167.997V104.807H171.997V100.807ZM171.997 108.807H167.997V112.807H171.997V108.807ZM167.997 116.807H171.997V120.807H167.997V116.807ZM171.997 124.807H167.997V128.807H171.997V124.807ZM167.997 132.807H171.997V136.807H167.997V132.807ZM171.997 140.807H167.997V144.807H171.997V140.807ZM199.997 124.807H195.997V128.807H199.997V124.807ZM164.997 100.807H160.997V104.807H164.997V100.807ZM164.997 108.807H160.997V112.807H164.997V108.807ZM160.997 116.807H164.997V120.807H160.997V116.807ZM164.997 124.807H160.997V128.807H164.997V124.807ZM160.997 132.807H164.997V136.807H160.997V132.807ZM164.997 140.807H160.997V144.807H164.997V140.807ZM199.997 132.807H195.997V136.807H199.997V132.807ZM157.997 100.807H153.997V104.807H157.997V100.807ZM157.997 108.807H153.997V112.807H157.997V108.807ZM153.997 116.807H157.997V120.807H153.997V116.807ZM157.997 124.807H153.997V128.807H157.997V124.807ZM153.997 132.807H157.997V136.807H153.997V132.807ZM157.997 140.807H153.997V144.807H157.997V140.807ZM199.997 140.807H195.997V144.807H199.997V140.807ZM150.997 100.807H146.997V104.807H150.997V100.807ZM150.997 108.807H146.997V112.807H150.997V108.807ZM146.997 116.807H150.997V120.807H146.997V116.807ZM150.997 124.807H146.997V128.807H150.997V124.807ZM146.997 132.807H150.997V136.807H146.997V132.807ZM150.997 140.807H146.997V144.807H150.997V140.807Z" fill="#F67E7E"/>
</svg>
