<svg xmlns="http://www.w3.org/2000/svg" width="359" height="201" fill="none"><circle cx="100.717" cy="100.406" r="100" fill="#2C6269"/><path fill="#012F34" fill-rule="evenodd" d="M258.717 200.406c55.229 0 100-44.772 100-100 0-55.229-44.771-100-100-100-55.228 0-100 44.771-100 100 0 55.228 44.772 100 100 100Zm0-67c18.226 0 33-14.775 33-33 0-18.226-14.774-33-33-33-18.225 0-33 14.774-33 33 0 18.225 14.775 33 33 33Z" clip-rule="evenodd"/><path fill="#79C8C7" d="M358.717 43.405h-43v-43h43z"/><path fill="#F67E7E" fill-rule="evenodd" d="M234.231 200.406c55.228 0 100-44.772 100-100 0-55.229-44.772-100-100-100-55.229 0-100 44.771-100 100 0 55.228 44.771 100 100 100Zm0-67c18.225 0 33-14.775 33-33 0-18.226-14.775-33-33-33s-33 14.774-33 33c0 18.225 14.775 33 33 33Z" clip-rule="evenodd"/><path fill="#79C8C7" fill-rule="evenodd" d="M100.717.406h-100v4h100v-4Zm0 8h-100v4h100v-4Zm-100 8h100v4h-100v-4Zm100 8h-100v4h100v-4Zm-100 8h100v4h-100v-4Zm100 8h-100v4h100v-4Z" clip-rule="evenodd"/></svg>