<svg xmlns="http://www.w3.org/2000/svg" width="200" height="201" fill="none"><path fill="#2C6269" d="M100 100.5H0V.5h100z"/><path fill="#F67E7E" fill-rule="evenodd" d="M100 200.5c55.228 0 100-44.772 100-100S155.228.5 100 .5 0 45.272 0 100.5s44.772 100 100 100Zm0-67c18.225 0 33-14.775 33-33s-14.775-33-33-33-33 14.775-33 33 14.775 33 33 33Z" clip-rule="evenodd"/><path fill="#79C8C7" fill-rule="evenodd" d="M100 .5H0v4h100v-4Zm0 8H0v4h100v-4Zm-100 8h100v4H0v-4Zm100 8H0v4h100v-4Zm-100 8h100v4H0v-4Zm100 8H0v4h100v-4Z" clip-rule="evenodd"/></svg>