<svg width="200" height="201" fill="none" xmlns="http://www.w3.org/2000/svg"><path fill="#2C6269" d="M100 100.5H0V.5h100z"/><path fill-rule="evenodd" clip-rule="evenodd" d="M100 200.5c55.228 0 100-44.772 100-100S155.228.5 100 .5 0 45.272 0 100.5s44.772 100 100 100Zm0-67c18.225 0 33-14.775 33-33s-14.775-33-33-33-33 14.775-33 33 14.775 33 33 33Z" fill="#014E56"/><path fill-rule="evenodd" clip-rule="evenodd" d="M100 100.5H0v4h100v-4Zm0 8H0v4h100v-4Zm-100 8h100v4H0v-4Zm100 8H0v4h100v-4Zm-100 8h100v4H0v-4Zm100 8H0v4h100v-4ZM0 .5h4v4H0v-4Zm11 0H7v4h4v-4Zm0 8H7v4h4v-4Zm-4 8h4v4H7v-4Zm4 8H7v4h4v-4Zm-4 8h4v4H7v-4Zm4 8H7v4h4v-4Zm3-40h4v4h-4v-4Zm0 8h4v4h-4v-4Zm4 8h-4v4h4v-4Zm-4 8h4v4h-4v-4Zm4 8h-4v4h4v-4Zm-4 8h4v4h-4v-4ZM0 8.5h4v4H0v-4Zm21-8h4v4h-4v-4Zm0 8h4v4h-4v-4Zm4 8h-4v4h4v-4Zm-4 8h4v4h-4v-4Zm4 8h-4v4h4v-4Zm-4 8h4v4h-4v-4Zm-21-24h4v4H0v-4Zm28-16h4v4h-4v-4Zm0 8h4v4h-4v-4Zm4 8h-4v4h4v-4Zm-4 8h4v4h-4v-4Zm4 8h-4v4h4v-4Zm-4 8h4v4h-4v-4Zm-28-16h4v4H0v-4Zm35-24h4v4h-4v-4Zm0 8h4v4h-4v-4Zm4 8h-4v4h4v-4Zm-4 8h4v4h-4v-4Zm4 8h-4v4h4v-4Zm-4 8h4v4h-4v-4Zm-35-8h4v4H0v-4Zm42-32h4v4h-4v-4Zm0 8h4v4h-4v-4Zm4 8h-4v4h4v-4Zm-4 8h4v4h-4v-4Zm4 8h-4v4h4v-4Zm-4 8h4v4h-4v-4Zm-42 0h4v4H0v-4Zm49-40h4v4h-4v-4Zm0 8h4v4h-4v-4Zm4 8h-4v4h4v-4Zm-4 8h4v4h-4v-4Zm4 8h-4v4h4v-4Zm-4 8h4v4h-4v-4Z" fill="#79C8C7"/></svg>