<svg xmlns="http://www.w3.org/2000/svg" width="200" height="200" fill="none"><path fill="#2C6269" d="M100 140H0V40h100z"/><path fill="#004047" fill-rule="evenodd" d="M100 240c55.228 0 100-44.772 100-100S155.228 40 100 40 0 84.772 0 140s44.772 100 100 100Zm0-67c18.225 0 33-14.775 33-33s-14.775-33-33-33-33 14.775-33 33 14.775 33 33 33Z" clip-rule="evenodd"/><path fill="#F67E7E" fill-rule="evenodd" d="M100 96H0v4h100v-4Zm0 8H0v4h100v-4ZM0 112h100v4H0v-4Zm100 8H0v4h100v-4ZM0 128h100v4H0v-4Zm100 8H0v4h100v-4Z" clip-rule="evenodd"/><path fill="#79C8C7" fill-rule="evenodd" d="M0-4h4v4H0v-4Zm11 0H7v4h4v-4Zm0 8H7v4h4V4Zm-4 8h4v4H7v-4Zm4 8H7v4h4v-4Zm-4 8h4v4H7v-4Zm4 8H7v4h4v-4Zm3-40h4v4h-4v-4Zm0 8h4v4h-4V4Zm4 8h-4v4h4v-4Zm-4 8h4v4h-4v-4Zm4 8h-4v4h4v-4Zm-4 8h4v4h-4v-4ZM0 4h4v4H0V4Zm21-8h4v4h-4v-4Zm0 8h4v4h-4V4Zm4 8h-4v4h4v-4Zm-4 8h4v4h-4v-4Zm4 8h-4v4h4v-4Zm-4 8h4v4h-4v-4ZM0 12h4v4H0v-4ZM28-4h4v4h-4v-4Zm0 8h4v4h-4V4Zm4 8h-4v4h4v-4Zm-4 8h4v4h-4v-4Zm4 8h-4v4h4v-4Zm-4 8h4v4h-4v-4ZM0 20h4v4H0v-4ZM35-4h4v4h-4v-4Zm0 8h4v4h-4V4Zm4 8h-4v4h4v-4Zm-4 8h4v4h-4v-4Zm4 8h-4v4h4v-4Zm-4 8h4v4h-4v-4ZM0 28h4v4H0v-4ZM42-4h4v4h-4v-4Zm0 8h4v4h-4V4Zm4 8h-4v4h4v-4Zm-4 8h4v4h-4v-4Zm4 8h-4v4h4v-4Zm-4 8h4v4h-4v-4ZM0 36h4v4H0v-4ZM49-4h4v4h-4v-4Zm0 8h4v4h-4V4Zm4 8h-4v4h4v-4Zm-4 8h4v4h-4v-4Zm4 8h-4v4h4v-4Zm-4 8h4v4h-4v-4Z" clip-rule="evenodd"/></svg>